<?xml version="1.0" encoding="utf-8"?>
<!-- Generator: Adobe Illustrator 16.0.0, SVG Export Plug-In . SVG Version: 6.00 Build 0)  -->
<!DOCTYPE svg PUBLIC "-//W3C//DTD SVG 1.1//EN" "http://www.w3.org/Graphics/SVG/1.1/DTD/svg11.dtd">
<svg version="1.1" id="Layer_1" xmlns="http://www.w3.org/2000/svg" xmlns:xlink="http://www.w3.org/1999/xlink" x="0px" y="0px"
	 width="999.863px" height="917.139px" viewBox="0 0 999.863 917.139" style="enable-background:new 0 0 999.863 917.139;"
	 xml:space="preserve">
<style type="text/css">
<![CDATA[
	.st0{fill-rule:evenodd;clip-rule:evenodd;fill:#FFFFFF;stroke-width:4px;}
]]>
</style>
<g>
	<path class="st0" d="M0,725.093c0.585-1.368,1.158-2.741,1.757-4.104c5.705-12.966,21.971-17.036,32.501-7.587
		c11.013,9.883,21.657,20.206,32.027,30.764c7.657,7.797,7.243,20.145-0.164,28.083c-7.348,7.875-19.874,9.271-27.993,2.049
		c-11.425-10.162-22.268-20.992-33.107-31.79c-2.243-2.234-3.376-5.582-5.021-8.417C0,731.092,0,728.092,0,725.093z"/>
	<path class="st0" d="M206.207,853.912c0.124,16.513-15.774,27.673-29.032,20.386c-20.982-11.535-41.337-24.283-61.447-37.306
		c-9.331-6.042-10.491-19.01-4.084-28.084c6.379-9.035,18.427-11.443,27.984-5.624c18.769,11.426,37.56,22.816,56.316,34.264
		C202.562,841.588,205.975,847.557,206.207,853.912z"/>
	<path class="st0" d="M326.256,917.139c-16.804-2.32-33.658-4.325-50.393-7.065c-12.211-1.999-19.65-13.021-17.375-24.375
		c2.316-11.559,13.028-18.738,25.186-16.394c20.206,3.899,40.539,5.619,61.116,5.046c12.474-0.348,20.705,7.61,21.123,19.711
		c0.405,11.727-8.197,21.282-20.024,21.846c-6.481,0.31-12.989,0.056-19.485,0.056C326.354,916.354,326.305,916.746,326.256,917.139
		z"/>
	<path class="st0" d="M443.086,893.898c-10.713-0.017-19.028-6.478-21.392-15.65c-2.382-9.241,1.594-18.938,10.055-23.367
		c12.805-6.702,25.68-13.285,38.684-19.589c9.784-4.743,21.483-0.774,26.766,8.584c5.255,9.311,3.214,21.631-6.003,26.951
		c-13.79,7.959-28.271,14.726-42.544,21.828C446.645,893.653,444.152,893.676,443.086,893.898z"/>
	<path class="st0" d="M999.863,22.81c-1.888,10.687-4.061,22.973-6.229,35.26c-15.896,90.041-31.796,180.081-47.688,270.123
		c-17.859,101.193-35.711,202.388-53.566,303.581c-5.818,32.966-11.652,65.928-17.459,98.897
		c-2.87,16.297-15.911,23.336-31.197,16.79c-61.089-26.159-122.194-52.282-183.223-78.58c-3.64-1.568-5.348-1.048-7.667,2.061
		c-38.15,51.15-76.442,102.196-114.681,153.28c-5.264,7.032-12.145,10.302-20.868,8.822c-8.488-1.439-13.931-6.569-16.643-14.719
		c-25.88-77.735-51.814-155.454-77.563-233.232c-1.456-4.4-3.575-6.718-8.038-8.196c-77.306-25.605-154.552-51.39-231.809-77.146
		c-13.97-4.658-20.603-17.436-14.462-29.219c2.096-4.021,5.917-7.799,9.873-10.099c94.614-55.012,189.355-109.805,284.071-164.643
		C629.367,199.304,796.019,102.814,962.668,6.32c2.018-1.167,3.962-2.466,6.003-3.592C982.984-5.169,999.931,4.856,999.863,22.81z
		 M942.03,110.765c-0.366-0.211-0.732-0.423-1.099-0.634C825.529,271.696,710.127,433.261,594.438,595.226
		c81.542,34.939,162.272,69.53,243.657,104.402C872.823,502.868,907.428,306.816,942.03,110.765z M238.248,473.846
		c2.378,0.937,3.709,1.534,5.085,1.994c60.977,20.333,121.974,40.604,182.899,61.088c4.307,1.448,6.794,0.703,9.926-2.433
		c136.465-136.627,273.025-273.16,409.566-409.712c1.113-1.113,2.134-2.321,3.197-3.485c-0.181-0.231-0.361-0.463-0.542-0.693
		C645.273,238.194,442.167,355.785,238.248,473.846z M811.628,219.109c-0.199-0.159-0.398-0.319-0.598-0.479
		c-1.275,1.204-2.582,2.377-3.822,3.617c-113.821,113.798-227.624,227.615-341.52,341.339c-3.211,3.207-4.186,5.815-2.659,10.345
		c16.976,50.334,33.703,100.753,50.506,151.146c0.486,1.457,1.079,2.878,2.048,5.441c0.637-2.378,0.995-3.468,1.217-4.584
		c7.436-37.235,14.875-74.469,22.274-111.711c2.072-10.43,4.651-20.177,11.242-29.351
		C636.82,464.447,722.896,343.716,809.07,223.056C809.981,221.781,810.778,220.426,811.628,219.109z M616.46,650.113
		c-13.148-5.627-25.691-10.997-38.716-16.571c-6.13,30.694-12.081,60.489-18.031,90.283c0.386,0.138,0.771,0.275,1.155,0.413
		C579.265,699.707,597.664,675.177,616.46,650.113z"/>
</g>
</svg>
